# Alias OBJ Model File
# Exported from SketchUp, (c) 2000-2012 Trimble Navigation Limited
# File units = meters

mtllib 箱.mtl

g Mesh1 Group1 Model

usemtl _38
v 0.543147 0.422275 -1.10005
vt 50.2759 40.1574
vn 0 1 -0
v 0.602954 0.422275 -1.11332
vt 50.5636 40.4981
v 0.770687 0.422275 -1.46703
vt 50.2759 43.595
f 1/1/1 2/2/1 3/3/1

v 0.950607 0.422275 -0.847415
vt 53.4218 40.1574
f 2/2/1 1/1/1 4/4/1

vt 50.2759 4.44866
vn -0.526956 0 0.849893
v 0.580404 0.383398 -1.07695
vt 50.5636 4.13916
vt 53.4218 4.44866
f 1/5/2 5/6/2 4/7/2

v 0.580404 0.0404983 -1.07695
vt 50.5636 1.4093
f 1/5/2 6/8/2 5/6/2

v 0.543147 0 -1.10005
vt 50.2759 1.08689
f 7/9/2 6/8/2 1/5/2

v 0.921856 0.0404983 -0.865242
vt 53.1998 1.4093
f 6/8/2 7/9/2 8/10/2

v 0.950607 0 -0.847415
vt 53.4218 1.08689
f 9/11/2 8/10/2 7/9/2

f 8/10/2 9/11/2 4/7/2

vt 33.0985 1.08689
vn 0.849893 0 0.526956
v 0.973157 0.0404983 -0.883784
vt 33.3793 1.4093
vt 33.0985 4.44866
f 9/12/3 10/13/3 4/14/3

v 1.17815 0 -1.2144
vt 35.9318 1.08689
f 10/13/3 9/12/3 11/15/3

vt -53.4218 40.1574
vn 0 -1 -0
v 0.944406 0 -0.901611
vt -53.1998 40.4981
vt -53.4218 43.595
f 9/16/4 12/17/4 11/18/4

v 0.602954 0 -1.11332
vt -50.5636 40.4981
f 9/16/4 13/19/4 12/17/4

vt -50.2759 40.1574
f 7/20/4 13/19/4 9/16/4

v 0.783647 0 -1.40475
vt -50.5636 43.228
f 13/19/4 7/20/4 14/21/4

v 0.770687 0 -1.46703
vt -50.2759 43.595
f 15/22/4 14/21/4 7/20/4

f 14/21/4 15/22/4 11/18/4

vt -50.2759 1.08689
vn 0.526956 0 -0.849893
v 0.807944 0.0404983 -1.44393
vt -50.5636 1.4093
vt -53.4218 1.08689
f 15/23/5 16/24/5 11/25/5

vt -50.2759 4.44866
f 16/24/5 15/23/5 3/26/5

vt -35.9318 1.08689
vn -0.849893 0 -0.526956
v 0.746391 0.0404983 -1.42785
vt -35.6293 1.4093
vt -35.9318 4.44866
f 15/27/6 17/28/6 3/29/6

v 0.565697 0.0404983 -1.13642
vt -33.3793 1.4093
f 15/27/6 18/30/6 17/28/6

vt -33.0985 1.08689
f 7/31/6 18/30/6 15/27/6

v 0.565697 0.383398 -1.13642
vt -33.3793 4.13916
f 18/30/6 7/31/6 19/32/6

vt -33.0985 4.44866
f 1/33/6 19/32/6 7/31/6

f 19/32/6 1/33/6 3/29/6

v 0.746391 0.383398 -1.42785
vt -35.6293 4.13916
f 19/32/6 3/29/6 20/34/6

f 20/34/6 3/29/6 17/28/6

usemtl Wood_Bamboo_Medium
vt -17.8147 1.70579
vt -17.8147 0.580785
vt -16.6897 0.580785
vt -16.6897 1.70579
f 20/35/6 17/36/6 18/37/6 19/38/6 

usemtl _38
v 0.807944 0.383398 -1.44393
vt -50.5636 4.13916
f 16/24/5 3/26/5 21/39/5

v 1.1494 0.383398 -1.23223
vt -53.1998 4.13916
f 21/39/5 3/26/5 22/40/5

v 1.17815 0.422275 -1.2144
vt -53.4218 4.44866
f 23/41/5 22/40/5 3/26/5

v 1.1494 0.0404983 -1.23223
vt -53.1998 1.4093
f 23/41/5 24/42/5 22/40/5

f 24/42/5 23/41/5 11/25/5

vt 35.9318 4.44866
v 1.15385 0.383398 -1.17521
vt 35.6293 4.13916
f 23/43/3 25/44/3 11/15/3

v 0.973157 0.383398 -0.883784
vt 33.3793 4.13916
f 23/43/3 26/45/3 25/44/3

f 4/14/3 26/45/3 23/43/3

f 26/45/3 4/14/3 10/13/3

usemtl Wood_Bamboo_Medium
v 1.15385 0.0404983 -1.17521
vt 17.8147 0.580785
vt 17.8147 1.70579
vt 16.6897 1.70579
vt 16.6897 0.580785
f 27/46/3 25/47/3 26/48/3 10/49/3 

usemtl _38
vt 35.6293 1.4093
f 27/50/3 11/15/3 25/44/3

f 10/13/3 11/15/3 27/50/3

vt 53.4218 43.595
v 1.1251 0.422275 -1.19304
vt 53.1998 43.228
f 23/51/1 28/52/1 4/4/1

v 0.783647 0.422275 -1.40475
vt 50.5636 43.228
f 23/51/1 29/53/1 28/52/1

f 3/3/1 29/53/1 23/51/1

f 29/53/1 3/3/1 2/2/1

usemtl Wood_Bamboo_Medium
vt 26.5999 17.8147
vt 25.2818 17.8147
vt 25.2818 16.6897
v 0.944406 0.422275 -0.901611
vt 26.5999 16.6897
f 28/54/1 29/55/1 2/56/1 30/57/1 

usemtl _38
vt 53.1998 40.4981
f 2/2/1 4/4/1 30/58/1

f 30/58/1 4/4/1 28/52/1

f 11/25/5 16/24/5 24/42/5

usemtl Wood_Bamboo_Medium
vt -26.5999 0.580785
vt -25.2818 0.580785
vt -25.2818 1.70579
vt -26.5999 1.70579
f 24/59/5 16/60/5 21/61/5 22/62/5 

usemtl _38
v 1.1251 0 -1.19304
vt -53.1998 43.228
f 14/21/4 11/18/4 31/63/4

f 31/63/4 11/18/4 12/17/4

usemtl Wood_Bamboo_Medium
vt -25.2818 17.8147
vt -26.5999 17.8147
vt -26.5999 16.6897
vt -25.2818 16.6897
f 14/64/4 31/65/4 12/66/4 13/67/4 

usemtl _38
v 0.921856 0.383398 -0.865242
vt 53.1998 4.13916
f 8/10/2 4/7/2 32/68/2

f 32/68/2 4/7/2 5/6/2

usemtl Wood_Bamboo_Medium
vt 25.2818 0.580785
vt 26.5999 0.580785
vt 26.5999 1.70579
vt 25.2818 1.70579
f 6/69/2 8/70/2 32/71/2 5/72/2 

g Mesh2 Group2 Model

usemtl _38
v 0.500227 0.422275 -0.466087
v 0.499041 0.422275 -0.527336
v 0.185458 0.422275 -0.761674
f 33/1/1 34/2/1 35/3/1

v 0.828416 0.422275 -0.815573
f 34/2/1 33/1/1 36/4/1

vn 0.728969 0 0.684547
v 0.530235 0.383398 -0.498042
f 33/5/7 37/6/7 36/7/7

v 0.530235 0.0404983 -0.498042
f 33/5/7 38/8/7 37/6/7

v 0.500227 0 -0.466087
f 39/9/7 38/8/7 33/5/7

v 0.805258 0.0404983 -0.790912
f 38/8/7 39/9/7 40/10/7

v 0.828416 0 -0.815573
f 41/11/7 40/10/7 39/9/7

f 40/10/7 41/11/7 36/7/7

vn 0.684547 0 -0.728969
v 0.797221 0.0404983 -0.844866
f 41/12/8 42/13/8 36/14/8

v 0.513647 0 -1.11116
f 42/13/8 41/12/8 43/15/8

v 0.774063 0 -0.820206
f 41/16/4 44/17/4 43/18/4

v 0.499041 0 -0.527336
f 41/16/4 45/19/4 44/17/4

f 39/20/4 45/19/4 41/16/4

v 0.249077 0 -0.762067
f 45/19/4 39/20/4 46/21/4

v 0.185458 0 -0.761674
f 47/22/4 46/21/4 39/20/4

f 46/21/4 47/22/4 43/18/4

vn -0.728969 0 -0.684547
v 0.215467 0.0404983 -0.79363
f 47/23/9 48/24/9 43/25/9

f 48/24/9 47/23/9 35/26/9

vn -0.684547 0 0.728969
v 0.219069 0.0404983 -0.730112
f 47/27/10 49/28/10 35/29/10

v 0.469032 0.0404983 -0.495381
f 47/27/10 50/30/10 49/28/10

f 39/31/10 50/30/10 47/27/10

v 0.469032 0.383398 -0.495381
f 50/30/10 39/31/10 51/32/10

f 33/33/10 51/32/10 39/31/10

f 51/32/10 33/33/10 35/29/10

v 0.219069 0.383398 -0.730112
f 51/32/10 35/29/10 52/34/10

f 52/34/10 35/29/10 49/28/10

usemtl Wood_Bamboo_Medium
f 52/35/10 49/36/10 50/37/10 51/38/10 

usemtl _38
v 0.215467 0.383398 -0.79363
f 48/24/9 35/26/9 53/39/9

v 0.490489 0.383398 -1.0865
f 53/39/9 35/26/9 54/40/9

v 0.513647 0.422275 -1.11116
f 55/41/9 54/40/9 35/26/9

v 0.490489 0.0404983 -1.0865
f 55/41/9 56/42/9 54/40/9

f 56/42/9 55/41/9 43/25/9

v 0.547258 0.383398 -1.0796
f 55/43/8 57/44/8 43/15/8

v 0.797221 0.383398 -0.844866
f 55/43/8 58/45/8 57/44/8

f 36/14/8 58/45/8 55/43/8

f 58/45/8 36/14/8 42/13/8

usemtl Wood_Bamboo_Medium
v 0.547258 0.0404983 -1.0796
f 59/46/8 57/47/8 58/48/8 42/49/8 

usemtl _38
f 59/50/8 43/15/8 57/44/8

f 42/13/8 43/15/8 59/50/8

v 0.5241 0.422275 -1.05494
f 55/51/1 60/52/1 36/4/1

v 0.249077 0.422275 -0.762067
f 55/51/1 61/53/1 60/52/1

f 35/3/1 61/53/1 55/51/1

f 61/53/1 35/3/1 34/2/1

usemtl Wood_Bamboo_Medium
v 0.774063 0.422275 -0.820206
f 60/54/1 61/55/1 34/56/1 62/57/1 

usemtl _38
f 34/2/1 36/4/1 62/58/1

f 62/58/1 36/4/1 60/52/1

f 43/25/9 48/24/9 56/42/9

usemtl Wood_Bamboo_Medium
f 56/59/9 48/60/9 53/61/9 54/62/9 

usemtl _38
v 0.5241 0 -1.05494
f 46/21/4 43/18/4 63/63/4

f 63/63/4 43/18/4 44/17/4

usemtl Wood_Bamboo_Medium
f 46/64/4 63/65/4 44/66/4 45/67/4 

usemtl _38
v 0.805258 0.383398 -0.790912
f 40/10/7 36/7/7 64/68/7

f 64/68/7 36/7/7 37/6/7

usemtl Wood_Bamboo_Medium
f 38/69/7 40/70/7 64/71/7 37/72/7 

g Mesh3 Group3 Model

usemtl _38
v 0.813388 0.422275 -0.165262
v 0.814661 0.422275 -0.22651
v 0.510735 0.422275 -0.473243
f 65/1/1 66/2/1 67/3/1

v 1.15534 0.422275 -0.501295
f 66/2/1 65/1/1 68/4/1

vn 0.700909 0 0.71325
v 0.844655 0.383398 -0.195987
f 65/5/11 69/6/11 68/7/11

v 0.844655 0.0404983 -0.195987
f 65/5/11 70/8/11 69/6/11

v 0.813388 0 -0.165262
f 71/9/11 70/8/11 65/5/11

v 1.13121 0.0404983 -0.477584
f 70/8/11 71/9/11 72/10/11

v 1.15534 0 -0.501295
f 73/11/11 72/10/11 71/9/11

f 72/10/11 73/11/11 68/7/11

vn 0.71325 0 -0.700909
v 1.12534 0.0404983 -0.531817
f 73/12/12 74/13/12 68/14/12

v 0.852685 0 -0.809277
f 74/13/12 73/12/12 75/15/12

v 1.10122 0 -0.508106
f 73/16/4 76/17/4 75/18/4

v 0.814661 0 -0.22651
f 73/16/4 77/19/4 76/17/4

f 71/20/4 77/19/4 73/16/4

v 0.574319 0 -0.471083
f 77/19/4 71/20/4 78/21/4

v 0.510735 0 -0.473243
f 79/22/4 78/21/4 71/20/4

f 78/21/4 79/22/4 75/18/4

vn -0.700909 0 -0.71325
v 0.542002 0.0404983 -0.503969
f 79/23/13 80/24/13 75/25/13

f 80/24/13 79/23/13 67/26/13

vn -0.71325 0 0.700909
v 0.543052 0.0404983 -0.440358
f 79/27/14 81/28/14 67/29/14

v 0.783394 0.0404983 -0.195784
f 79/27/14 82/30/14 81/28/14

f 71/31/14 82/30/14 79/27/14

v 0.783394 0.383398 -0.195784
f 82/30/14 71/31/14 83/32/14

f 65/33/14 83/32/14 71/31/14

f 83/32/14 65/33/14 67/29/14

v 0.543052 0.383398 -0.440358
f 83/32/14 67/29/14 84/34/14

f 84/34/14 67/29/14 81/28/14

usemtl Wood_Bamboo_Medium
f 84/35/14 81/36/14 82/37/14 83/38/14 

usemtl _38
v 0.542002 0.383398 -0.503969
f 80/24/13 67/26/13 85/39/13

v 0.828556 0.383398 -0.785565
f 85/39/13 67/26/13 86/40/13

v 0.852685 0.422275 -0.809277
f 87/41/13 86/40/13 67/26/13

v 0.828556 0.0404983 -0.785565
f 87/41/13 88/42/13 86/40/13

f 88/42/13 87/41/13 75/25/13

v 0.885002 0.383398 -0.776391
f 87/43/12 89/44/12 75/15/12

v 1.12534 0.383398 -0.531817
f 87/43/12 90/45/12 89/44/12

f 68/14/12 90/45/12 87/43/12

f 90/45/12 68/14/12 74/13/12

usemtl Wood_Bamboo_Medium
v 0.885002 0.0404983 -0.776391
f 91/46/12 89/47/12 90/48/12 74/49/12 

usemtl _38
f 91/50/12 75/15/12 89/44/12

f 74/13/12 75/15/12 91/50/12

v 0.860873 0.422275 -0.752679
f 87/51/1 92/52/1 68/4/1

v 0.574319 0.422275 -0.471083
f 87/51/1 93/53/1 92/52/1

f 67/3/1 93/53/1 87/51/1

f 93/53/1 67/3/1 66/2/1

usemtl Wood_Bamboo_Medium
v 1.10122 0.422275 -0.508106
f 92/54/1 93/55/1 66/56/1 94/57/1 

usemtl _38
f 66/2/1 68/4/1 94/58/1

f 94/58/1 68/4/1 92/52/1

f 75/25/13 80/24/13 88/42/13

usemtl Wood_Bamboo_Medium
f 88/59/13 80/60/13 85/61/13 86/62/13 

usemtl _38
v 0.860873 0 -0.752679
f 78/21/4 75/18/4 95/63/4

f 95/63/4 75/18/4 76/17/4

usemtl Wood_Bamboo_Medium
f 78/64/4 95/65/4 76/66/4 77/67/4 

usemtl _38
v 1.13121 0.383398 -0.477584
f 72/10/11 68/7/11 96/68/11

f 96/68/11 68/7/11 69/6/11

usemtl Wood_Bamboo_Medium
f 70/69/11 72/70/11 96/71/11 69/72/11 

g Mesh4 Group4 Model

usemtl _38
v 0.463687 0.847725 -0.493498
v 0.47252 0.847725 -0.554119
v 0.201422 0.847725 -0.836526
f 97/1/1 98/2/1 99/3/1

v 0.844549 0.847725 -0.784689
f 98/2/1 97/1/1 100/4/1

vn 0.607376 0 0.794415
v 0.498512 0.808848 -0.520124
f 97/5/15 101/6/15 100/7/15

v 0.498512 0.465948 -0.520124
f 97/5/15 102/8/15 101/6/15

v 0.463687 0.42545 -0.493498
f 103/9/15 102/8/15 97/5/15

v 0.817674 0.465948 -0.764142
f 102/8/15 103/9/15 104/10/15

v 0.844549 0.42545 -0.784689
f 105/11/15 104/10/15 103/9/15

f 104/10/15 105/11/15 100/7/15

vn 0.794415 0 -0.607376
v 0.818558 0.465948 -0.818685
f 105/12/16 106/13/16 100/14/16

v 0.582284 0.42545 -1.12772
f 106/13/16 105/12/16 107/15/16

v 0.791683 0.42545 -0.798137
f 105/16/4 108/17/4 107/18/4

v 0.47252 0.42545 -0.554119
f 105/16/4 109/19/4 108/17/4

f 103/20/4 109/19/4 105/16/4

v 0.264251 0.42545 -0.826524
f 109/19/4 103/20/4 110/21/4

v 0.201422 0.42545 -0.836526
f 111/22/4 110/21/4 103/20/4

f 110/21/4 111/22/4 107/18/4

vn -0.607376 0 -0.794415
v 0.236247 0.465948 -0.863152
f 111/23/17 112/24/17 107/25/17

f 112/24/17 111/23/17 99/26/17

vn -0.794415 0 0.607376
v 0.229426 0.465948 -0.799898
f 111/27/18 113/28/18 99/29/18

v 0.437695 0.465948 -0.527494
f 111/27/18 114/30/18 113/28/18

f 103/31/18 114/30/18 111/27/18

v 0.437695 0.808848 -0.527494
f 114/30/18 103/31/18 115/32/18

f 97/33/18 115/32/18 103/31/18

f 115/32/18 97/33/18 99/29/18

v 0.229426 0.808848 -0.799898
f 115/32/18 99/29/18 116/34/18

f 116/34/18 99/29/18 113/28/18

usemtl Wood_Bamboo_Medium
f 116/35/18 113/36/18 114/37/18 115/38/18 

usemtl _38
v 0.236247 0.808848 -0.863152
f 112/24/17 99/26/17 117/39/17

v 0.555409 0.808848 -1.10717
f 117/39/17 99/26/17 118/40/17

v 0.582284 0.847725 -1.12772
f 119/41/17 118/40/17 99/26/17

v 0.555409 0.465948 -1.10717
f 119/41/17 120/42/17 118/40/17

f 120/42/17 119/41/17 107/25/17

v 0.610289 0.808848 -1.09109
f 119/43/16 121/44/16 107/15/16

v 0.818558 0.808848 -0.818685
f 119/43/16 122/45/16 121/44/16

f 100/14/16 122/45/16 119/43/16

f 122/45/16 100/14/16 106/13/16

usemtl Wood_Bamboo_Medium
v 0.610289 0.465948 -1.09109
f 123/46/16 121/47/16 122/48/16 106/49/16 

usemtl _38
f 123/50/16 107/15/16 121/44/16

f 106/13/16 107/15/16 123/50/16

v 0.583414 0.847725 -1.07054
f 119/51/1 124/52/1 100/4/1

v 0.264251 0.847725 -0.826524
f 119/51/1 125/53/1 124/52/1

f 99/3/1 125/53/1 119/51/1

f 125/53/1 99/3/1 98/2/1

usemtl Wood_Bamboo_Medium
v 0.791683 0.847725 -0.798137
f 124/54/1 125/55/1 98/56/1 126/57/1 

usemtl _38
f 98/2/1 100/4/1 126/58/1

f 126/58/1 100/4/1 124/52/1

f 107/25/17 112/24/17 120/42/17

usemtl Wood_Bamboo_Medium
f 120/59/17 112/60/17 117/61/17 118/62/17 

usemtl _38
v 0.583414 0.42545 -1.07054
f 110/21/4 107/18/4 127/63/4

f 127/63/4 107/18/4 108/17/4

usemtl Wood_Bamboo_Medium
f 110/64/4 127/65/4 108/66/4 109/67/4 

usemtl _38
v 0.817674 0.808848 -0.764142
f 104/10/15 100/7/15 128/68/15

f 128/68/15 100/7/15 101/6/15

usemtl Wood_Bamboo_Medium
f 102/69/15 104/70/15 128/71/15 101/72/15 

